<svg width="194" height="63" viewBox="0 0 194 63" fill="none" xmlns="http://www.w3.org/2000/svg">
<ellipse cx="31.5" cy="23.0773" rx="31.5" ry="20.4016" fill="#E9BB70"/>
<path d="M42.913 0L53.1924 11.0369H32.6337L42.913 0Z" fill="#E9BB70"/>
<path d="M18.2608 0L28.5401 11.0369H7.98146L18.2608 0Z" fill="#E9BB70"/>
<ellipse cx="32.1429" cy="43.4789" rx="30.8571" ry="19.5211" fill="#E9BB70"/>
<ellipse cx="30.8571" cy="30.1691" rx="3.85714" ry="21.2958" fill="#CC7917"/>
<ellipse cx="24.4286" cy="1.77465" rx="24.4286" ry="1.77465" transform="matrix(-1 0 0 1 56.5714 19.5211)" fill="#CC7917"/>
<ellipse cx="24.4286" cy="1.77465" rx="24.4286" ry="1.77465" transform="matrix(-1 0 0 1 56.5714 26.6198)" fill="#CC7917"/>
<ellipse cx="24.4286" cy="1.77465" rx="24.4286" ry="1.77465" transform="matrix(-1 0 0 1 56.5714 39.0422)" fill="#CC7917"/>
<path d="M83.0889 33.1074C82.7249 32.8281 82.2002 32.6885 81.5146 32.6885C80.626 32.6885 79.8812 33.1074 79.2803 33.9453C78.6878 34.7832 78.3916 35.9258 78.3916 37.373V44H76.3096V31H78.3916V33.6787H78.4424C78.7386 32.7646 79.1914 32.0537 79.8008 31.5459C80.4102 31.0296 81.0915 30.7715 81.8447 30.7715C82.3864 30.7715 82.8011 30.8307 83.0889 30.9492V33.1074ZM90.7822 44.3047C88.861 44.3047 87.3249 43.6995 86.1738 42.4893C85.0312 41.2705 84.46 39.6582 84.46 37.6523C84.46 35.4688 85.0566 33.7633 86.25 32.5361C87.4434 31.3089 89.0557 30.6953 91.0869 30.6953C93.0251 30.6953 94.5358 31.292 95.6191 32.4854C96.7109 33.6787 97.2568 35.3333 97.2568 37.4492C97.2568 39.5228 96.6686 41.1859 95.4922 42.4385C94.3242 43.6826 92.7542 44.3047 90.7822 44.3047ZM90.9346 32.4473C89.5973 32.4473 88.5394 32.9043 87.7607 33.8184C86.9821 34.724 86.5928 35.9766 86.5928 37.5762C86.5928 39.1165 86.9863 40.3311 87.7734 41.2197C88.5605 42.1084 89.6143 42.5527 90.9346 42.5527C92.2803 42.5527 93.3128 42.1169 94.0322 41.2451C94.7601 40.3734 95.124 39.1335 95.124 37.5254C95.124 35.9004 94.7601 34.6478 94.0322 33.7676C93.3128 32.8874 92.2803 32.4473 90.9346 32.4473ZM111.374 44H108.454L102.716 37.7539H102.665V44H100.583V24.7539H102.665V36.9541H102.716L108.175 31H110.904L104.874 37.2715L111.374 44ZM118.94 44.3047C117.019 44.3047 115.483 43.6995 114.332 42.4893C113.189 41.2705 112.618 39.6582 112.618 37.6523C112.618 35.4688 113.215 33.7633 114.408 32.5361C115.602 31.3089 117.214 30.6953 119.245 30.6953C121.183 30.6953 122.694 31.292 123.777 32.4854C124.869 33.6787 125.415 35.3333 125.415 37.4492C125.415 39.5228 124.827 41.1859 123.65 42.4385C122.482 43.6826 120.912 44.3047 118.94 44.3047ZM119.093 32.4473C117.756 32.4473 116.698 32.9043 115.919 33.8184C115.14 34.724 114.751 35.9766 114.751 37.5762C114.751 39.1165 115.145 40.3311 115.932 41.2197C116.719 42.1084 117.772 42.5527 119.093 42.5527C120.438 42.5527 121.471 42.1169 122.19 41.2451C122.918 40.3734 123.282 39.1335 123.282 37.5254C123.282 35.9004 122.918 34.6478 122.19 33.7676C121.471 32.8874 120.438 32.4473 119.093 32.4473ZM137.603 43.4033C136.604 44.0042 135.419 44.3047 134.048 44.3047C132.194 44.3047 130.696 43.7038 129.554 42.502C128.42 41.2917 127.853 39.7259 127.853 37.8047C127.853 35.6634 128.466 33.9453 129.693 32.6504C130.921 31.347 132.558 30.6953 134.606 30.6953C135.749 30.6953 136.756 30.9069 137.628 31.3301V33.4629C136.663 32.7858 135.631 32.4473 134.53 32.4473C133.201 32.4473 132.11 32.9255 131.255 33.8818C130.409 34.8298 129.985 36.0781 129.985 37.627C129.985 39.1504 130.383 40.3522 131.179 41.2324C131.983 42.1126 133.058 42.5527 134.403 42.5527C135.537 42.5527 136.604 42.1761 137.603 41.4229V43.4033ZM146.185 44.3047C144.263 44.3047 142.727 43.6995 141.576 42.4893C140.434 41.2705 139.862 39.6582 139.862 37.6523C139.862 35.4688 140.459 33.7633 141.652 32.5361C142.846 31.3089 144.458 30.6953 146.489 30.6953C148.427 30.6953 149.938 31.292 151.021 32.4854C152.113 33.6787 152.659 35.3333 152.659 37.4492C152.659 39.5228 152.071 41.1859 150.895 42.4385C149.727 43.6826 148.157 44.3047 146.185 44.3047ZM146.337 32.4473C145 32.4473 143.942 32.9043 143.163 33.8184C142.384 34.724 141.995 35.9766 141.995 37.5762C141.995 39.1165 142.389 40.3311 143.176 41.2197C143.963 42.1084 145.017 42.5527 146.337 42.5527C147.683 42.5527 148.715 42.1169 149.435 41.2451C150.162 40.3734 150.526 39.1335 150.526 37.5254C150.526 35.9004 150.162 34.6478 149.435 33.7676C148.715 32.8874 147.683 32.4473 146.337 32.4473ZM167.081 44H164.999V41.791H164.948C163.983 43.4668 162.494 44.3047 160.479 44.3047C158.846 44.3047 157.538 43.7249 156.557 42.5654C155.583 41.3975 155.097 39.8105 155.097 37.8047C155.097 35.6549 155.638 33.9326 156.722 32.6377C157.805 31.3428 159.248 30.6953 161.051 30.6953C162.837 30.6953 164.136 31.3978 164.948 32.8027H164.999V24.7539H167.081V44ZM164.999 38.1221V36.2051C164.999 35.1556 164.652 34.2669 163.958 33.5391C163.264 32.8112 162.384 32.4473 161.317 32.4473C160.048 32.4473 159.049 32.9128 158.321 33.8438C157.593 34.7747 157.229 36.0612 157.229 37.7031C157.229 39.2012 157.576 40.3861 158.271 41.2578C158.973 42.1211 159.912 42.5527 161.089 42.5527C162.248 42.5527 163.188 42.1338 163.907 41.2959C164.635 40.458 164.999 39.4001 164.999 38.1221ZM181.744 38.0205H172.565C172.599 39.4678 172.989 40.585 173.733 41.3721C174.478 42.1592 175.502 42.5527 176.806 42.5527C178.27 42.5527 179.616 42.0703 180.843 41.1055V43.0605C179.7 43.89 178.189 44.3047 176.311 44.3047C174.474 44.3047 173.031 43.7165 171.981 42.54C170.932 41.3551 170.407 39.6921 170.407 37.5508C170.407 35.528 170.979 33.8818 172.121 32.6123C173.272 31.3343 174.698 30.6953 176.399 30.6953C178.101 30.6953 179.417 31.2454 180.348 32.3457C181.279 33.446 181.744 34.9736 181.744 36.9287V38.0205ZM179.611 36.2559C179.603 35.054 179.311 34.1188 178.735 33.4502C178.168 32.7816 177.377 32.4473 176.361 32.4473C175.38 32.4473 174.546 32.7985 173.86 33.501C173.175 34.2035 172.752 35.1217 172.591 36.2559H179.611Z" fill="#FCAF45"/>
</svg>
